<?xml version="1.0" encoding="UTF-8"?>
<svg xmlns="http://www.w3.org/2000/svg" xmlns:xlink="http://www.w3.org/1999/xlink" width="200pt" height="200pt" viewBox="0 0 200 200" version="1.1">
<g id="surface15954436">
<path style=" stroke:none;fill-rule:nonzero;fill:rgb(100%,100%,100%);fill-opacity:1;" d="M 100 186 C 52.503906 186 14 147.496094 14 100 C 14 52.503906 52.503906 14 100 14 C 147.496094 14 186 52.503906 186 100 C 186 147.496094 147.496094 186 100 186 Z M 100 186 "/>
<path style=" stroke:none;fill-rule:nonzero;fill:rgb(69.019608%,75.686275%,83.137255%);fill-opacity:1;" d="M 129.226562 137.324219 C 126.242188 137.324219 123.824219 139.742188 123.824219 142.726562 C 123.824219 145.707031 126.242188 148.125 129.226562 148.125 C 132.207031 148.125 134.625 145.707031 134.625 142.726562 C 134.625 139.742188 132.207031 137.324219 129.226562 137.324219 Z M 129.226562 137.324219 "/>
<path style=" stroke:none;fill-rule:nonzero;fill:rgb(40%,47.45098%,56.078431%);fill-opacity:1;" d="M 129.226562 138 C 131.789062 138 133.949219 140.160156 133.949219 142.726562 C 133.949219 145.289062 131.789062 147.449219 129.226562 147.449219 C 126.660156 147.449219 124.5 145.289062 124.5 142.726562 C 124.5 140.160156 126.660156 138 129.226562 138 M 129.226562 136.648438 C 125.851562 136.648438 123.148438 139.351562 123.148438 142.726562 C 123.148438 146.101562 125.851562 148.800781 129.226562 148.800781 C 132.601562 148.800781 135.300781 146.101562 135.300781 142.726562 C 135.300781 139.351562 132.601562 136.648438 129.226562 136.648438 Z M 129.226562 136.648438 "/>
<path style=" stroke:none;fill-rule:nonzero;fill:rgb(40%,47.45098%,56.078431%);fill-opacity:1;" d="M 129.226562 140.699219 C 128.105469 140.699219 127.199219 141.605469 127.199219 142.726562 C 127.199219 143.84375 128.105469 144.75 129.226562 144.75 C 130.34375 144.75 131.25 143.84375 131.25 142.726562 C 131.25 141.605469 130.34375 140.699219 129.226562 140.699219 Z M 129.226562 140.699219 "/>
<path style=" stroke:none;fill-rule:nonzero;fill:rgb(69.019608%,75.686275%,83.137255%);fill-opacity:1;" d="M 94.125 137.324219 C 91.144531 137.324219 88.726562 139.742188 88.726562 142.726562 C 88.726562 145.707031 91.144531 148.125 94.125 148.125 C 97.105469 148.125 99.523438 145.707031 99.523438 142.726562 C 99.523438 139.742188 97.105469 137.324219 94.125 137.324219 Z M 94.125 137.324219 "/>
<path style=" stroke:none;fill-rule:nonzero;fill:rgb(40%,47.45098%,56.078431%);fill-opacity:1;" d="M 94.125 138 C 96.691406 138 98.851562 140.160156 98.851562 142.726562 C 98.851562 145.289062 96.691406 147.449219 94.125 147.449219 C 91.558594 147.449219 89.398438 145.289062 89.398438 142.726562 C 89.398438 140.160156 91.558594 138 94.125 138 M 94.125 136.648438 C 90.75 136.648438 88.050781 139.351562 88.050781 142.726562 C 88.050781 146.101562 90.75 148.800781 94.125 148.800781 C 97.5 148.800781 100.199219 146.101562 100.199219 142.726562 C 100.199219 139.351562 97.5 136.648438 94.125 136.648438 Z M 94.125 136.648438 "/>
<path style=" stroke:none;fill-rule:nonzero;fill:rgb(40%,47.45098%,56.078431%);fill-opacity:1;" d="M 94.125 140.699219 C 93.007812 140.699219 92.101562 141.605469 92.101562 142.726562 C 92.101562 143.84375 93.007812 144.75 94.125 144.75 C 95.242188 144.75 96.148438 143.84375 96.148438 142.726562 C 96.148438 141.605469 95.242188 140.699219 94.125 140.699219 Z M 94.125 140.699219 "/>
<path style=" stroke:none;fill-rule:nonzero;fill:rgb(94.901961%,49.019608%,10.980392%);fill-opacity:1;" d="M 78.734375 113.023438 L 70.230469 63.886719 L 147.988281 74.550781 L 138.40625 109.648438 C 137.863281 111.675781 135.976562 113.160156 133.816406 113.160156 L 78.734375 113.160156 Z M 78.734375 113.023438 "/>
<path style=" stroke:none;fill-rule:nonzero;fill:rgb(100%,100%,100%);fill-opacity:1;" d="M 71.039062 64.695312 L 147.046875 75.089844 L 137.730469 109.378906 C 137.191406 111.136719 135.703125 112.351562 133.816406 112.351562 L 79.410156 112.351562 L 71.039062 64.695312 M 69.421875 63.074219 L 78.195312 113.699219 L 133.816406 113.699219 C 136.246094 113.699219 138.40625 112.078125 139.078125 109.785156 L 148.800781 73.875 Z M 69.421875 63.074219 "/>
<path style=" stroke:none;fill-rule:nonzero;fill:rgb(40%,47.45098%,56.078431%);fill-opacity:1;" d="M 138 138 L 92.371094 138 C 86.023438 138 80.625 133.546875 79.546875 127.199219 L 67.394531 57.40625 C 66.585938 52.546875 62.265625 48.898438 57.269531 48.898438 L 51.601562 48.898438 L 51.601562 46.199219 L 57.269531 46.199219 C 63.613281 46.199219 69.015625 50.65625 70.09375 57 L 82.246094 126.796875 C 83.054688 131.789062 87.375 135.300781 92.371094 135.300781 L 138 135.300781 Z M 138 138 "/>
<path style=" stroke:none;fill-rule:nonzero;fill:rgb(94.901961%,49.019608%,10.980392%);fill-opacity:1;" d="M 51.601562 46.875 C 48.992188 46.875 46.875 48.992188 46.875 51.601562 C 46.875 54.210938 48.992188 56.324219 51.601562 56.324219 C 54.210938 56.324219 56.324219 54.210938 56.324219 51.601562 C 56.324219 48.992188 54.210938 46.875 51.601562 46.875 Z M 51.601562 46.875 "/>
<path style=" stroke:none;fill-rule:nonzero;fill:rgb(100%,100%,100%);fill-opacity:1;" d="M 51.601562 47.550781 C 53.894531 47.550781 55.648438 49.304688 55.648438 51.601562 C 55.648438 53.894531 53.894531 55.648438 51.601562 55.648438 C 49.304688 55.648438 47.550781 53.894531 47.550781 51.601562 C 47.550781 49.304688 49.304688 47.550781 51.601562 47.550781 M 51.601562 46.199219 C 48.628906 46.199219 46.199219 48.628906 46.199219 51.601562 C 46.199219 54.570312 48.628906 57 51.601562 57 C 54.570312 57 57 54.570312 57 51.601562 C 57 48.628906 54.570312 46.199219 51.601562 46.199219 Z M 90.75 81.300781 L 92.101562 81.300781 L 92.101562 102.898438 L 90.75 102.898438 Z M 101.550781 81.300781 L 102.898438 81.300781 L 102.898438 102.898438 L 101.550781 102.898438 Z M 112.351562 81.300781 L 113.699219 81.300781 L 113.699219 102.898438 L 112.351562 102.898438 Z M 123.148438 81.300781 L 124.5 81.300781 L 124.5 102.898438 L 123.148438 102.898438 Z M 123.148438 81.300781 "/>
</g>
</svg>
