<?xml version="1.0" encoding="UTF-8"?>
<svg xmlns="http://www.w3.org/2000/svg" xmlns:xlink="http://www.w3.org/1999/xlink" width="14pt" height="14pt" viewBox="0 0 14 14" version="1.1">
<g id="surface15501176">
<path style=" stroke:none;fill-rule:nonzero;fill:rgb(100%,100%,100%);fill-opacity:1;" d="M 5.25 9.332031 C 4.929688 9.332031 4.667969 9.070312 4.667969 8.75 L 4.667969 5.832031 L 3.5 5.832031 L 3.5 8.75 C 3.5 9.710938 4.289062 10.5 5.25 10.5 L 10.792969 10.5 L 10.792969 9.332031 Z M 5.25 9.332031 "/>
<path style=" stroke:none;fill-rule:nonzero;fill:rgb(100%,100%,100%);fill-opacity:1;" d="M 3.734375 2.917969 L 3.617188 2.539062 C 3.441406 2.070312 3.003906 1.75 2.507812 1.75 L 1.457031 1.75 L 1.457031 2.917969 L 2.507812 2.917969 L 4.113281 7.757812 C 4.199219 7.992188 4.402344 8.167969 4.667969 8.167969 L 10.207031 8.167969 C 10.441406 8.167969 10.644531 8.019531 10.734375 7.816406 L 12.949219 2.917969 Z M 3.734375 2.917969 "/>
<path style=" stroke:none;fill-rule:nonzero;fill:rgb(100%,100%,100%);fill-opacity:1;" d="M 1.457031 1.75 C 1.136719 1.75 0.875 2.011719 0.875 2.332031 C 0.875 2.65625 1.136719 2.917969 1.457031 2.917969 C 1.78125 2.917969 2.042969 2.65625 2.042969 2.332031 C 2.042969 2.011719 1.78125 1.75 1.457031 1.75 Z M 1.457031 1.75 "/>
<path style=" stroke:none;fill-rule:nonzero;fill:rgb(100%,100%,100%);fill-opacity:1;" d="M 9.917969 10.5 C 9.433594 10.5 9.042969 10.890625 9.042969 11.375 C 9.042969 11.859375 9.433594 12.25 9.917969 12.25 C 10.398438 12.25 10.792969 11.859375 10.792969 11.375 C 10.792969 10.890625 10.398438 10.5 9.917969 10.5 Z M 5.542969 10.5 C 5.058594 10.5 4.667969 10.890625 4.667969 11.375 C 4.667969 11.859375 5.058594 12.25 5.542969 12.25 C 6.023438 12.25 6.417969 11.859375 6.417969 11.375 C 6.417969 10.890625 6.023438 10.5 5.542969 10.5 Z M 5.542969 10.5 "/>
<path style=" stroke:none;fill-rule:nonzero;fill:rgb(100%,100%,100%);fill-opacity:1;" d="M 9.917969 11.082031 C 9.753906 11.082031 9.625 11.214844 9.625 11.375 C 9.625 11.535156 9.753906 11.667969 9.917969 11.667969 C 10.078125 11.667969 10.207031 11.535156 10.207031 11.375 C 10.207031 11.214844 10.078125 11.082031 9.917969 11.082031 Z M 5.542969 11.082031 C 5.378906 11.082031 5.25 11.214844 5.25 11.375 C 5.25 11.535156 5.378906 11.667969 5.542969 11.667969 C 5.703125 11.667969 5.832031 11.535156 5.832031 11.375 C 5.832031 11.214844 5.703125 11.082031 5.542969 11.082031 Z M 5.542969 11.082031 "/>
</g>
</svg>
