<?xml version="1.0" encoding="UTF-8"?>
<svg xmlns="http://www.w3.org/2000/svg" xmlns:xlink="http://www.w3.org/1999/xlink" width="12pt" height="12pt" viewBox="0 0 12 12" version="1.1">
<g id="surface25849307">
<path style=" stroke:none;fill-rule:nonzero;fill:rgb(0%,60.784314%,86.27451%);fill-opacity:1;" d="M 6 1 C 4.074219 1 2.5 2.574219 2.5 4.5 C 2.5 6.425781 6 11 6 11 C 6 11 9.5 6.425781 9.5 4.5 C 9.5 2.574219 7.925781 1 6 1 Z M 6 1 "/>
<path style=" stroke:none;fill-rule:nonzero;fill:rgb(100%,100%,100%);fill-opacity:1;" d="M 5.25 4.5 C 5.25 4.074219 5.574219 3.75 6 3.75 C 6.425781 3.75 6.75 4.074219 6.75 4.5 C 6.75 4.925781 6.425781 5.25 6 5.25 C 5.574219 5.25 5.25 4.925781 5.25 4.5 Z M 7.226562 3.273438 C 7.898438 3.949219 7.898438 5.074219 7.226562 5.75 C 7.175781 5.800781 7.125 5.851562 7.074219 5.875 L 7.550781 6.449219 C 7.625 6.398438 7.699219 6.324219 7.75 6.273438 C 8.726562 5.300781 8.726562 3.726562 7.75 2.75 C 7.675781 2.675781 7.625 2.625 7.550781 2.574219 L 7.074219 3.148438 C 7.148438 3.175781 7.199219 3.226562 7.226562 3.273438 Z M 4.773438 5.726562 C 4.425781 5.398438 4.25 4.976562 4.25 4.5 C 4.25 4.023438 4.425781 3.601562 4.773438 3.273438 C 4.824219 3.226562 4.875 3.175781 4.925781 3.148438 L 4.449219 2.574219 C 4.375 2.625 4.300781 2.699219 4.25 2.75 C 3.273438 3.726562 3.273438 5.300781 4.25 6.273438 C 4.324219 6.351562 4.375 6.398438 4.449219 6.449219 L 4.925781 5.875 C 4.851562 5.824219 4.800781 5.773438 4.773438 5.726562 Z M 4.773438 5.726562 "/>
</g>
</svg>
