<?xml version="1.0" encoding="UTF-8"?>
<svg xmlns="http://www.w3.org/2000/svg" xmlns:xlink="http://www.w3.org/1999/xlink" width="12pt" height="12pt" viewBox="0 0 12 12" version="1.1">
<g id="surface15190014">
<path style=" stroke:none;fill-rule:nonzero;fill:rgb(55.294118%,55.294118%,55.294118%);fill-opacity:1;" d="M 6 0 C 4.464844 0 3.230469 1.234375 3.230469 2.769531 L 3.230469 4.617188 C 2.214844 4.617188 1.382812 5.445312 1.382812 6.460938 L 1.382812 10.152344 C 1.382812 11.167969 2.214844 12 3.230469 12 L 8.769531 12 C 9.785156 12 10.617188 11.167969 10.617188 10.152344 L 10.617188 6.460938 C 10.617188 5.445312 9.785156 4.617188 8.769531 4.617188 L 8.769531 2.769531 C 8.769531 1.234375 7.535156 0 6 0 Z M 6 0.921875 C 7.050781 0.921875 7.847656 1.71875 7.847656 2.769531 L 7.847656 4.617188 L 4.152344 4.617188 L 4.152344 2.769531 C 4.152344 1.71875 4.949219 0.921875 6 0.921875 Z M 6 6.921875 C 6.507812 6.921875 6.921875 7.335938 6.921875 7.847656 C 6.921875 8.167969 6.738281 8.484375 6.460938 8.625 L 6.460938 9.691406 C 6.460938 9.96875 6.277344 10.152344 6 10.152344 C 5.722656 10.152344 5.539062 9.96875 5.539062 9.691406 L 5.539062 8.625 C 5.261719 8.484375 5.078125 8.167969 5.078125 7.847656 C 5.078125 7.335938 5.492188 6.921875 6 6.921875 Z M 6 6.921875 "/>
</g>
</svg>
