<svg xmlns="http://www.w3.org/2000/svg" x="0px" y="0px"
width="50" height="50"
viewBox="0 0 172 172"
style=" fill:#000000;"><g fill="none" fill-rule="nonzero" stroke="none" stroke-width="1" stroke-linecap="butt" stroke-linejoin="miter" stroke-miterlimit="10" stroke-dasharray="" stroke-dashoffset="0" font-family="none" font-weight="none" font-size="none" text-anchor="none" style="mix-blend-mode: normal"><path d="M0,172v-172h172v172z" fill="none"></path><g><path d="M129,17.91667l-14.33333,14.33333l-14.33333,-14.33333l-14.33333,14.33333l-14.33333,-14.33333l-14.33333,14.33333l-14.33333,-14.33333l-14.33333,14.33333l-14.33333,-14.33333v112.875h114.66667z" fill="#009bdc"></path><path d="M35.83333,50.16667h43v7.16667h-43zM89.58333,50.16667h17.91667v7.16667h-17.91667zM35.83333,64.5h21.5v7.16667h-21.5zM68.08333,64.5h39.41667v7.16667h-39.41667zM35.83333,78.83333h14.33333v7.16667h-14.33333zM60.91667,78.83333h21.5v7.16667h-21.5zM93.16667,78.83333h14.33333v7.16667h-14.33333z" fill="#ffffff"></path><path d="M138.03717,107.5h-103.91667l-0.15767,46.58333c0,0 98.82475,-0.01433 103.91667,0c10.88617,0.03225 19.74417,-10.37017 19.78717,-23.23075c0.043,-12.86058 -8.74692,-23.32033 -19.6295,-23.35258z" fill="#009bdc"></path><path d="M35.83333,93.16667h35.83333v7.16667h-35.83333zM78.83333,93.16667h28.66667v7.16667h-28.66667z" fill="#ffffff"></path><path d="M34.1205,107.5c-10.88617,-0.03225 -19.74417,10.37017 -19.78717,23.23075c-0.043,12.86417 8.74692,23.32033 19.6295,23.35258c10.88258,0.03225 19.74417,-10.37017 19.78717,-23.23075c0.043,-12.86058 -8.74692,-23.32033 -19.6295,-23.35258z" fill="#42a5f5"></path><path d="M34.07392,118.25c-4.22475,0 -8.96192,5.34633 -8.99058,12.51658c-0.01433,3.73383 1.25775,7.29208 3.48658,9.76458c0.946,1.04275 2.9025,2.795 5.42517,2.80217c0.00717,0 0.01075,0 0.01433,0c4.22117,0 8.96192,-5.34633 8.99058,-12.51658c0.02508,-7.17742 -4.68342,-12.556 -8.91175,-12.56675c-0.00717,0 -0.01075,0 -0.01433,0z" fill="#ffffff"></path></g></g></svg>