<?xml version="1.0" encoding="UTF-8"?>
<svg xmlns="http://www.w3.org/2000/svg" xmlns:xlink="http://www.w3.org/1999/xlink" width="40pt" height="40pt" viewBox="0 0 40 40" version="1.1">
<g id="surface1222511">
<path style=" stroke:none;fill-rule:nonzero;fill:rgb(100%,100%,100%);fill-opacity:1;" d="M 19.996094 1 C 9.503906 1 0.996094 9.507812 0.996094 20 C 0.996094 30.492188 9.503906 39 19.996094 39 C 30.492188 39 38.996094 30.492188 38.996094 20 C 38.996094 9.507812 30.492188 1 19.996094 1 Z M 19.996094 1 "/>
<path style=" stroke:none;fill-rule:nonzero;fill:rgb(77.254902%,83.137255%,87.058824%);fill-opacity:1;" d="M 20 6 C 19.722656 6 19.5 6.222656 19.5 6.5 C 19.5 6.777344 19.722656 7 20 7 C 20.277344 7 20.5 6.777344 20.5 6.5 C 20.5 6.222656 20.277344 6 20 6 Z M 20.003906 33 C 19.726562 33 19.503906 33.222656 19.503906 33.5 C 19.503906 33.777344 19.726562 34 20.003906 34 C 20.277344 34 20.503906 33.777344 20.503906 33.5 C 20.503906 33.222656 20.277344 33 20.003906 33 Z M 6.5 19.5 C 6.222656 19.5 6 19.722656 6 20 C 6 20.277344 6.222656 20.5 6.5 20.5 C 6.777344 20.5 7 20.277344 7 20 C 7 19.722656 6.777344 19.5 6.5 19.5 Z M 33.503906 19.5 C 33.226562 19.5 33.003906 19.722656 33.003906 20 C 33.003906 20.277344 33.226562 20.5 33.503906 20.5 C 33.777344 20.5 34.003906 20.277344 34.003906 20 C 34.003906 19.722656 33.777344 19.5 33.503906 19.5 Z M 33.503906 19.5 "/>
<path style=" stroke:none;fill-rule:nonzero;fill:rgb(94.901961%,49.019608%,10.980392%);fill-opacity:1;" d="M 19.996094 38.75 C 9.65625 38.75 1.246094 30.339844 1.246094 20 C 1.246094 9.660156 9.65625 1.25 19.996094 1.25 C 26.351562 1.25 32.203125 4.429688 35.6875 9.761719 L 33.144531 12.28125 C 30.40625 7.628906 25.398438 4.75 19.996094 4.75 C 11.589844 4.75 4.746094 11.589844 4.746094 20 C 4.746094 28.410156 11.589844 35.25 19.996094 35.25 C 28.40625 35.25 35.246094 28.410156 35.246094 20 C 35.246094 18.195312 34.921875 16.40625 34.277344 14.679688 L 36.949219 12.03125 C 38.144531 14.554688 38.746094 17.234375 38.746094 20 C 38.746094 30.339844 30.335938 38.75 19.996094 38.75 Z M 19.996094 38.75 "/>
<path style=" stroke:none;fill-rule:nonzero;fill:rgb(54.509804%,45.882353%,63.137255%);fill-opacity:1;" d="M 19.996094 1.5 C 26.199219 1.5 31.914062 4.570312 35.367188 9.730469 L 33.195312 11.882812 C 30.378906 7.3125 25.382812 4.5 19.996094 4.5 C 11.449219 4.5 4.496094 11.453125 4.496094 20 C 4.496094 28.546875 11.449219 35.5 19.996094 35.5 C 28.542969 35.5 35.496094 28.546875 35.496094 20 C 35.496094 18.21875 35.183594 16.449219 34.566406 14.746094 L 36.875 12.460938 C 37.953125 14.855469 38.496094 17.390625 38.496094 20 C 38.496094 30.199219 30.199219 38.5 19.996094 38.5 C 9.796875 38.5 1.496094 30.199219 1.496094 20 C 1.496094 9.800781 9.796875 1.5 19.996094 1.5 M 19.996094 1 C 9.503906 1 0.996094 9.507812 0.996094 20 C 0.996094 30.492188 9.503906 39 19.996094 39 C 30.492188 39 38.996094 30.492188 38.996094 20 C 38.996094 16.984375 38.277344 14.140625 37.023438 11.605469 L 33.984375 14.617188 C 34.628906 16.289062 34.996094 18.101562 34.996094 20 C 34.996094 28.285156 28.28125 35 19.996094 35 C 11.714844 35 4.996094 28.285156 4.996094 20 C 4.996094 11.714844 11.714844 5 19.996094 5 C 25.625 5 30.523438 8.105469 33.089844 12.6875 L 36.007812 9.796875 C 32.632812 4.511719 26.730469 1 19.996094 1 Z M 19.996094 1 "/>
<path style=" stroke:none;fill-rule:nonzero;fill:rgb(18.039216%,80%,44.313725%);fill-opacity:1;" d="M 12.527344 17.828125 L 15.003906 15.351562 L 20.003906 20.351562 L 36.089844 4.4375 L 38.5625 6.914062 L 20.003906 25.304688 Z M 12.527344 17.828125 "/>
<path style=" stroke:none;fill-rule:nonzero;fill:rgb(36.862745%,61.176471%,46.27451%);fill-opacity:1;" d="M 36.085938 4.789062 L 38.207031 6.914062 L 20.003906 24.953125 L 12.882812 17.828125 L 15.003906 15.707031 L 20 20.703125 L 20.355469 20.355469 L 36.085938 4.789062 M 36.089844 4.085938 L 20.003906 20 L 15.003906 15 L 12.175781 17.828125 L 20.003906 25.65625 L 38.917969 6.914062 Z M 36.089844 4.085938 "/>
</g>
</svg>
