<?xml version="1.0" encoding="UTF-8"?>
<svg xmlns="http://www.w3.org/2000/svg" xmlns:xlink="http://www.w3.org/1999/xlink" width="12pt" height="12pt" viewBox="0 0 12 12" version="1.1">
<g id="surface5404386">
<path style=" stroke:none;fill-rule:nonzero;fill:rgb(0%,60.784314%,86.27451%);fill-opacity:1;" d="M 10.332031 8.320312 C 9.617188 7.710938 8.890625 7.335938 8.1875 7.949219 L 7.765625 8.316406 C 7.457031 8.585938 6.882812 9.835938 4.667969 7.285156 C 2.453125 4.738281 3.769531 4.34375 4.078125 4.078125 L 4.503906 3.707031 C 5.203125 3.097656 4.941406 2.328125 4.433594 1.535156 L 4.128906 1.054688 C 3.621094 0.265625 3.066406 -0.253906 2.363281 0.355469 L 1.980469 0.6875 C 1.667969 0.914062 0.800781 1.652344 0.589844 3.050781 C 0.335938 4.730469 1.136719 6.652344 2.972656 8.761719 C 4.804688 10.875 6.597656 11.933594 8.296875 11.914062 C 9.707031 11.898438 10.5625 11.140625 10.828125 10.867188 L 11.210938 10.53125 C 11.914062 9.921875 11.476562 9.300781 10.761719 8.691406 Z M 10.332031 8.320312 "/>
</g>
</svg>
